<mxfile host="app.diagrams.net" modified="2023-08-17T17:41:53.513Z" agent="Mozilla/5.0 (Windows NT 10.0; Win64; x64) AppleWebKit/537.36 (KHTML, like Gecko) Chrome/115.0.0.0 Safari/537.36" version="21.6.5" etag="WXjKFiPB79sncBEP5HqG" type="github">
  <diagram name="Page-1" id="YdAi4qfh4RE7i8HLmeiD">
    <mxGraphModel>
      <root>
        <mxCell id="0" />
        <mxCell id="1" parent="0" />
      </root>
    </mxGraphModel>
  </diagram>
</mxfile>
